<svg width="137" height="44" viewBox="0 0 137 44" fill="none" xmlns="http://www.w3.org/2000/svg">
<path d="M33.78 17.215C33.78 16.985 33.875 16.87 34.065 16.87H42.06C42.24 16.87 42.33 16.975 42.33 17.185L42.315 18.925C42.315 19.195 42.19 19.33 41.94 19.33H37.53C37.3 19.33 37.185 19.425 37.185 19.615V21.025C37.185 21.225 37.275 21.325 37.455 21.325H40.2C40.4 21.325 40.5 21.425 40.5 21.625V23.455C40.5 23.625 40.41 23.71 40.23 23.71H37.425C37.265 23.71 37.185 23.785 37.185 23.935V27.565C37.185 27.855 37.02 28 36.69 28H34.185C34.025 28 33.915 27.97 33.855 27.91C33.805 27.85 33.78 27.755 33.78 27.625V17.215ZM44.6521 24.82C44.6521 25.12 44.7171 25.37 44.8471 25.57C44.9871 25.77 45.1721 25.92 45.4021 26.02C45.6421 26.12 45.9071 26.17 46.1971 26.17C46.4571 26.17 46.7121 26.11 46.9621 25.99C47.2121 25.87 47.5021 25.65 47.8321 25.33C47.8721 25.29 47.9071 25.27 47.9371 25.27C47.9771 25.26 48.0471 25.275 48.1471 25.315L49.5121 25.87C49.6921 25.94 49.7121 26.06 49.5721 26.23C49.2121 26.73 48.8471 27.12 48.4771 27.4C48.1171 27.68 47.7171 27.875 47.2771 27.985C46.8471 28.095 46.3521 28.15 45.7921 28.15C44.9921 28.15 44.2721 27.98 43.6321 27.64C42.9921 27.3 42.4871 26.83 42.1171 26.23C41.7471 25.63 41.5621 24.94 41.5621 24.16C41.5621 23.31 41.7521 22.565 42.1321 21.925C42.5221 21.285 43.0321 20.79 43.6621 20.44C44.3021 20.08 44.9921 19.9 45.7321 19.9C46.5221 19.9 47.2221 20.07 47.8321 20.41C48.4421 20.75 48.9221 21.24 49.2721 21.88C49.6321 22.51 49.8121 23.28 49.8121 24.19C49.8121 24.32 49.7971 24.415 49.7671 24.475C49.7471 24.525 49.6721 24.555 49.5421 24.565H44.8771C44.8071 24.565 44.7521 24.585 44.7121 24.625C44.6721 24.665 44.6521 24.73 44.6521 24.82ZM46.6471 23.02C46.7471 23.02 46.8121 23.01 46.8421 22.99C46.8821 22.96 46.9021 22.9 46.9021 22.81C46.9021 22.68 46.8671 22.525 46.7971 22.345C46.7271 22.165 46.6171 22.005 46.4671 21.865C46.3171 21.725 46.1171 21.655 45.8671 21.655C45.6671 21.655 45.4721 21.705 45.2821 21.805C45.1021 21.895 44.9571 22.04 44.8471 22.24C44.7471 22.44 44.6971 22.695 44.6971 23.005L46.6471 23.02ZM51.0997 28C50.8397 28 50.7097 27.875 50.7097 27.625V20.395C50.7097 20.165 50.8047 20.05 50.9947 20.05H53.3947C53.5747 20.05 53.6647 20.15 53.6647 20.35V21.025C53.6647 21.085 53.6797 21.125 53.7097 21.145C53.7497 21.165 53.7997 21.145 53.8597 21.085C54.0797 20.855 54.3147 20.65 54.5647 20.47C54.8147 20.29 55.0847 20.15 55.3747 20.05C55.6647 19.94 55.9597 19.885 56.2597 19.885C56.7597 19.885 57.1947 20.01 57.5647 20.26C57.9447 20.5 58.2197 20.855 58.3897 21.325C58.4097 21.365 58.4347 21.385 58.4647 21.385C58.4947 21.375 58.5297 21.35 58.5697 21.31C58.7597 21.05 58.9997 20.815 59.2897 20.605C59.5797 20.395 59.8897 20.225 60.2197 20.095C60.5497 19.965 60.8647 19.9 61.1647 19.9C61.8447 19.9 62.3997 20.12 62.8297 20.56C63.2597 20.99 63.4747 21.605 63.4747 22.405V27.55C63.4747 27.85 63.3197 28 63.0097 28H60.8197C60.6897 28 60.5997 27.975 60.5497 27.925C60.4997 27.865 60.4747 27.765 60.4747 27.625V22.735C60.4747 22.505 60.3997 22.33 60.2497 22.21C60.1097 22.08 59.9247 22.015 59.6947 22.015C59.5747 22.015 59.4497 22.045 59.3197 22.105C59.1997 22.155 59.0847 22.225 58.9747 22.315C58.8747 22.395 58.7847 22.49 58.7047 22.6C58.6547 22.67 58.6197 22.74 58.5997 22.81C58.5897 22.87 58.5847 22.935 58.5847 23.005V27.55C58.5847 27.85 58.4347 28 58.1347 28H55.9447C55.8247 28 55.7347 27.975 55.6747 27.925C55.6247 27.865 55.5997 27.765 55.5997 27.625V22.735C55.5997 22.505 55.5297 22.33 55.3897 22.21C55.2497 22.08 55.0597 22.015 54.8197 22.015C54.5997 22.015 54.3947 22.075 54.2047 22.195C54.0147 22.315 53.8497 22.505 53.7097 22.765V27.565C53.7097 27.855 53.5447 28 53.2147 28H51.0997ZM71.4207 19.855C71.2407 19.655 71.0157 19.47 70.7457 19.3C70.4757 19.13 70.0457 19.045 69.4557 19.045C68.8957 19.045 68.5007 19.125 68.2707 19.285C68.0407 19.445 67.9257 19.62 67.9257 19.81C67.9257 19.9 67.9507 19.995 68.0007 20.095C68.0607 20.185 68.1607 20.275 68.3007 20.365C68.4407 20.445 68.6357 20.515 68.8857 20.575L71.3757 21.22C72.3157 21.45 73.0057 21.86 73.4457 22.45C73.8957 23.04 74.1207 23.72 74.1207 24.49C74.1207 25.23 73.9257 25.875 73.5357 26.425C73.1457 26.975 72.5907 27.4 71.8707 27.7C71.1607 28 70.3107 28.15 69.3207 28.15C68.5907 28.15 67.8957 28.07 67.2357 27.91C66.5857 27.74 66.0157 27.505 65.5257 27.205C65.0357 26.905 64.6707 26.56 64.4307 26.17C64.3707 26.06 64.3457 25.97 64.3557 25.9C64.3657 25.83 64.4207 25.755 64.5207 25.675L66.0657 24.61C66.2057 24.52 66.3207 24.485 66.4107 24.505C66.5007 24.515 66.5757 24.56 66.6357 24.64C66.8557 24.92 67.0757 25.15 67.2957 25.33C67.5157 25.51 67.7657 25.64 68.0457 25.72C68.3357 25.8 68.6757 25.84 69.0657 25.84C69.6157 25.84 70.0557 25.765 70.3857 25.615C70.7157 25.465 70.8807 25.25 70.8807 24.97C70.8807 24.85 70.8457 24.74 70.7757 24.64C70.7057 24.53 70.6007 24.435 70.4607 24.355C70.3307 24.275 70.1557 24.21 69.9357 24.16L67.6557 23.605C67.0557 23.455 66.5357 23.22 66.0957 22.9C65.6557 22.57 65.3157 22.18 65.0757 21.73C64.8357 21.28 64.7157 20.795 64.7157 20.275C64.7157 19.625 64.9007 19.03 65.2707 18.49C65.6507 17.95 66.1857 17.52 66.8757 17.2C67.5757 16.88 68.3957 16.72 69.3357 16.72C69.9357 16.72 70.5057 16.79 71.0457 16.93C71.5957 17.06 72.0857 17.245 72.5157 17.485C72.9457 17.725 73.2757 18.01 73.5057 18.34C73.5557 18.41 73.5907 18.485 73.6107 18.565C73.6407 18.635 73.6057 18.71 73.5057 18.79L71.8707 19.975C71.8007 20.025 71.7357 20.045 71.6757 20.035C71.6157 20.015 71.5307 19.955 71.4207 19.855ZM79.2233 27.37C78.9533 27.59 78.6383 27.775 78.2783 27.925C77.9283 28.075 77.5183 28.15 77.0483 28.15C76.2983 28.15 75.7083 27.94 75.2783 27.52C74.8583 27.1 74.6483 26.58 74.6483 25.96C74.6483 25.37 74.8333 24.855 75.2033 24.415C75.5833 23.975 76.1183 23.635 76.8083 23.395C77.4983 23.145 78.3133 23.02 79.2533 23.02H79.3583C79.3983 23.02 79.4433 23.01 79.4933 22.99C79.5533 22.96 79.5833 22.9 79.5833 22.81V22.555C79.5833 22.275 79.5083 22.06 79.3583 21.91C79.2183 21.76 78.9983 21.685 78.6983 21.685C78.4883 21.685 78.2733 21.735 78.0533 21.835C77.8333 21.925 77.6583 22.11 77.5283 22.39C77.4883 22.47 77.4433 22.525 77.3933 22.555C77.3533 22.575 77.2633 22.575 77.1233 22.555L75.1583 22.165C75.0883 22.145 75.0333 22.11 74.9933 22.06C74.9633 22 74.9833 21.875 75.0533 21.685C75.2833 21.045 75.7233 20.59 76.3733 20.32C77.0333 20.04 77.8533 19.9 78.8333 19.9C79.7633 19.9 80.4883 20.005 81.0083 20.215C81.5283 20.425 81.8933 20.715 82.1033 21.085C82.3233 21.455 82.4333 21.885 82.4333 22.375V27.595C82.4333 27.745 82.4083 27.85 82.3583 27.91C82.3183 27.97 82.2283 28 82.0883 28H80.0333C79.9033 28 79.8083 27.95 79.7483 27.85C79.6983 27.74 79.6633 27.615 79.6433 27.475L79.6283 27.37C79.5983 27.17 79.4633 27.17 79.2233 27.37ZM79.5833 24.64C79.5833 24.46 79.5083 24.37 79.3583 24.37H79.2983C79.1783 24.37 79.0183 24.395 78.8183 24.445C78.6283 24.485 78.4383 24.555 78.2483 24.655C78.0583 24.745 77.8933 24.865 77.7533 25.015C77.6233 25.165 77.5583 25.345 77.5583 25.555C77.5583 25.765 77.6333 25.935 77.7833 26.065C77.9333 26.195 78.1433 26.26 78.4133 26.26C78.6133 26.26 78.7783 26.23 78.9083 26.17C79.0483 26.11 79.1583 26.045 79.2383 25.975C79.3283 25.895 79.4083 25.815 79.4783 25.735C79.5483 25.645 79.5833 25.545 79.5833 25.435V24.64ZM88.459 20.05C88.589 20.05 88.684 20.085 88.744 20.155C88.804 20.215 88.834 20.29 88.834 20.38V21.79C88.834 21.98 88.724 22.075 88.504 22.075H87.574C87.454 22.075 87.394 22.135 87.394 22.255V27.67C87.394 27.89 87.299 28 87.109 28H84.664C84.484 28 84.394 27.9 84.394 27.7V22.225C84.394 22.125 84.354 22.075 84.274 22.075H83.434C83.214 22.075 83.104 21.98 83.104 21.79V20.38C83.104 20.29 83.129 20.215 83.179 20.155C83.239 20.085 83.334 20.05 83.464 20.05H84.184C84.324 20.05 84.394 19.96 84.394 19.78V18.985C84.394 18.335 84.604 17.82 85.024 17.44C85.454 17.06 86.034 16.87 86.764 16.87H88.459C88.749 16.87 88.894 17 88.894 17.26L88.909 18.52C88.909 18.6 88.884 18.67 88.834 18.73C88.794 18.79 88.729 18.82 88.639 18.82H87.994C87.824 18.82 87.669 18.895 87.529 19.045C87.389 19.195 87.319 19.375 87.319 19.585V19.855C87.319 19.985 87.384 20.05 87.514 20.05H88.459ZM92.2155 24.82C92.2155 25.12 92.2805 25.37 92.4105 25.57C92.5505 25.77 92.7355 25.92 92.9655 26.02C93.2055 26.12 93.4705 26.17 93.7605 26.17C94.0205 26.17 94.2755 26.11 94.5255 25.99C94.7755 25.87 95.0655 25.65 95.3955 25.33C95.4355 25.29 95.4705 25.27 95.5005 25.27C95.5405 25.26 95.6105 25.275 95.7105 25.315L97.0755 25.87C97.2555 25.94 97.2755 26.06 97.1355 26.23C96.7755 26.73 96.4105 27.12 96.0405 27.4C95.6805 27.68 95.2805 27.875 94.8405 27.985C94.4105 28.095 93.9155 28.15 93.3555 28.15C92.5555 28.15 91.8355 27.98 91.1955 27.64C90.5555 27.3 90.0505 26.83 89.6805 26.23C89.3105 25.63 89.1255 24.94 89.1255 24.16C89.1255 23.31 89.3155 22.565 89.6955 21.925C90.0855 21.285 90.5955 20.79 91.2255 20.44C91.8655 20.08 92.5555 19.9 93.2955 19.9C94.0855 19.9 94.7855 20.07 95.3955 20.41C96.0055 20.75 96.4855 21.24 96.8355 21.88C97.1955 22.51 97.3755 23.28 97.3755 24.19C97.3755 24.32 97.3605 24.415 97.3305 24.475C97.3105 24.525 97.2355 24.555 97.1055 24.565H92.4405C92.3705 24.565 92.3155 24.585 92.2755 24.625C92.2355 24.665 92.2155 24.73 92.2155 24.82ZM94.2105 23.02C94.3105 23.02 94.3755 23.01 94.4055 22.99C94.4455 22.96 94.4655 22.9 94.4655 22.81C94.4655 22.68 94.4305 22.525 94.3605 22.345C94.2905 22.165 94.1805 22.005 94.0305 21.865C93.8805 21.725 93.6805 21.655 93.4305 21.655C93.2305 21.655 93.0355 21.705 92.8455 21.805C92.6655 21.895 92.5205 22.04 92.4105 22.24C92.3105 22.44 92.2605 22.695 92.2605 23.005L94.2105 23.02Z" fill="white"/>
<path d="M2.03482 15.7768C2.03482 15.7768 1.05849 7.98215 9.44604 3.30537C9.44604 3.30537 15.1709 0.142978 21.872 3.6617C28.5732 7.18042 28.7064 14.1733 28.662 15.5095C28.6176 16.8458 28.3069 20.6317 25.2448 25.4867C22.1827 30.3416 17.3898 37.9135 17.3898 37.9135L16.2904 40.0763L15.6 41.714C15.6 41.714 15.2862 42.5014 14.941 41.4621C14.5959 40.4227 12.2423 36.1394 12.2423 36.1394L8.2884 29.9349C8.2884 29.9349 4.33447 23.7933 3.58134 21.9036C2.82821 20.0139 2.02593 18.0276 2.03482 15.7768Z" fill="#E6B3FF" stroke="#E6B3FF" stroke-width="3.77953" stroke-linecap="round" stroke-linejoin="round"/>
<path d="M10.0672 7.75942C10.0672 7.75942 11.1988 5.73282 12.7077 4.75292C12.7077 4.75292 13.2402 4.30751 12.9518 5.02016C12.9518 5.02016 12.2195 7.31401 12.2639 9.25154C12.2639 9.25154 12.2639 13.3047 13.7062 15.9995C13.7062 15.9995 14.971 18.0483 15.3704 18.5383C15.7698 19.0282 18.0997 22.057 18.1884 22.3465C18.2772 22.636 20.1855 25.353 19.9192 27.7805C19.9192 27.7805 20.0745 29.7403 19.2313 31.0988C18.3881 32.4573 17.9222 33.504 15.5479 33.9939C15.5479 33.9939 14.86 34.3057 15.6589 33.2813C16.4577 32.2568 16.4799 31.0765 16.4799 31.0765C16.4799 31.0765 16.613 27.7582 14.616 25.4198C12.6189 23.0814 12.1086 23.3041 9.20177 23.371C6.29498 23.4378 6.56125 21.7452 6.56125 21.7452C6.56125 21.7452 7.27131 20.5426 6.60563 19.9636C5.93995 19.3846 6.0287 18.8501 6.69438 18.6274C6.69438 18.6274 7.43218 18.6329 6.65555 18.2766C5.87893 17.9203 5.90112 17.2188 6.07863 17.0462C6.25615 16.8736 7.3468 16.2345 6.13866 15.2739C4.93051 14.3133 6.31125 13.4629 6.31125 13.4629C6.31125 13.4629 8.16269 12.5181 8.6334 11.2583C9.1041 9.99847 10.0672 7.75942 10.0672 7.75942Z" fill="white"/>
<path d="M19.5005 10.4386C19.7224 10.3272 19.739 10.5945 19.8111 10.7281C19.8832 10.8617 19.9886 10.6223 19.9886 10.6223L20.2716 10.2604C20.8596 9.26938 22.2353 8.17813 22.2353 8.17813C22.2353 6.93099 21.8581 6.27402 21.6917 6.05131C21.5252 5.82861 21.2078 5.23949 21.2078 5.23949C21.1823 5.19816 21.0941 4.93045 21.0941 4.93045L20.9261 5.03801C20.7375 5.18277 19.85 5.6059 19.85 5.6059C17.8751 6.6192 18.1858 8.03337 18.1858 8.03337L19.0955 10.8617C19.0955 10.8617 19.1399 10.8506 19.212 10.7448C19.2841 10.639 19.4783 10.4191 19.5005 10.4386Z" fill="white"/>
<path d="M19.2231 14.2414C18.685 15.0933 18.8459 15.9674 19.0401 16.5019C19.2342 17.0364 19.911 18.0441 19.911 18.0441L21.4726 16.3791C22.4376 16.4263 23.4731 16.2846 23.4731 16.2846C23.4417 16.1744 23.6143 15.1508 23.6143 15.1508C23.8183 13.2926 22.9553 12.9225 22.5238 12.6627C22.0924 12.4028 20.7979 12.0958 20.7979 12.0958L22.2414 12.3477C23.7163 12.5682 24.2341 12.1115 24.2341 12.1115C24.948 11.6627 25.2696 10.7257 25.5207 10.1746C25.7717 9.62339 25.9757 9.37143 25.9129 9.37143C25.8502 9.37143 25.0186 9.15096 24.7519 8.88326C24.4851 8.61555 23.4025 7.89116 22.414 8.37934C21.4255 8.86751 20.5939 10.2375 20.2801 10.7415C19.9663 11.2454 20.4998 11.2139 20.4998 11.2139C20.4998 11.2139 21.0176 11.4895 20.492 11.7139C19.9664 11.9383 20.0487 11.9462 20.2213 12.0918C20.3939 12.2375 20.4528 12.5209 20.0683 12.4934C20.0683 12.4934 19.7114 12.206 19.6996 12.517C19.6878 12.828 19.3782 14.0131 19.2231 14.2414Z" fill="white"/>
<path d="M14.255 8.63924C14.255 8.63924 14.1451 7.89123 13.9961 7.66289C13.9961 7.66289 14.2236 7.65503 14.7571 7.50542C15.2905 7.35582 16.4595 7.12748 17.142 7.58415C17.142 7.58415 17.7853 7.74951 18.2481 9.11954C18.711 10.4896 18.8365 10.8203 18.6718 10.836C18.6718 10.836 18.3658 10.6628 18.4835 10.9069C18.6012 11.151 19.0405 11.5289 18.6561 11.5762C18.2717 11.6234 18.0128 11.8281 18.3894 11.8832C18.3894 11.8832 18.9464 11.7966 19.0954 12.0328C19.2445 12.269 19.5347 12.8832 19.0797 13.8123C19.0797 13.8123 18.3266 15.7807 17.0871 16.1587C17.0871 16.1587 16.632 16.4421 14.8826 15.9067C14.8826 15.9067 14.5766 15.9067 14.7257 15.6233C14.7257 15.6233 14.71 15.269 14.6708 14.9698C14.6315 14.6705 14.5217 12.9777 15.5494 12.3793C16.5771 11.7809 17.5735 11.7809 17.5735 11.7809C17.5735 11.7809 16.5222 11.9069 15.3298 11.2848C14.1373 10.6628 14.2864 9.09592 14.2864 9.09592C14.2864 9.09592 14.2707 8.69435 14.255 8.63924Z" fill="white"/>
</svg>
