<?xml version="1.0" encoding="UTF-8" standalone="no"?>
<svg
   width="24"
   height="17"
   viewBox="0 0 24 17"
   fill="none"
   version="1.1"
   id="svg3"
   sodipodi:docname="Group 27.svg"
   inkscape:export-filename="..\OneDrive\Escritorio\FemSafe\src\OneDrive\Escritorio\FemSafe\src\assets\Menu.svg"
   inkscape:export-xdpi="96"
   inkscape:export-ydpi="96"
   xmlns:inkscape="http://www.inkscape.org/namespaces/inkscape"
   xmlns:sodipodi="http://sodipodi.sourceforge.net/DTD/sodipodi-0.dtd"
   xmlns="http://www.w3.org/2000/svg"
   xmlns:svg="http://www.w3.org/2000/svg">
  <sodipodi:namedview
     id="namedview3"
     pagecolor="#ffffff"
     bordercolor="#cccccc"
     borderopacity="1"
     inkscape:showpageshadow="0"
     inkscape:pageopacity="1"
     inkscape:pagecheckerboard="0"
     inkscape:deskcolor="#d1d1d1">
    <inkscape:page
       x="0"
       y="0"
       width="24"
       height="17"
       id="page2"
       margin="0"
       bleed="0" />
  </sodipodi:namedview>
  <g
     clip-path="url(#clip0_1_232)"
     id="g3"
     style="fill:#b246f2;fill-opacity:1">
    <path
       d="M 0.995062,7.39253 H 22.8897 c 0.5495,0 0.9951,0.47277 0.9951,1.05593 0,0.58316 -0.4456,1.05592 -0.9951,1.05592 H 0.995062 C 0.445516,9.50438 0,9.03162 0,8.44846 0,7.8653 0.445516,7.39253 0.995062,7.39253 Z"
       fill="white"
       id="path1"
       style="fill:#b246f2;fill-opacity:1" />
    <path
       d="M 0.995062,7.62939e-5 H 22.8897 c 0.5495,0 0.9951,0.4727647061 0.9951,1.0559237061 0,0.58316 -0.4456,1.05592 -0.9951,1.05592 H 0.995062 C 0.445516,2.11242 0,1.63965 0,1.056 0,0.472841 0.445516,7.62939e-5 0.995062,7.62939e-5 Z"
       fill="white"
       id="path2"
       style="fill:#b246f2;fill-opacity:1" />
    <path
       d="M 0.995062,14.7855 H 22.8897 c 0.5495,0 0.9951,0.4728 0.9951,1.0559 0,0.5832 -0.4456,1.0559 -0.9951,1.0559 H 0.995062 C 0.445516,16.8973 0,16.4246 0,15.8414 0,15.2583 0.445516,14.7855 0.995062,14.7855 Z"
       fill="white"
       id="path3"
       style="fill:#b246f2;fill-opacity:1" />
  </g>
  <defs
     id="defs3">
    <clipPath
       id="clip0_1_232">
      <rect
         width="23.885201"
         height="16.897301"
         fill="#ffffff"
         id="rect3"
         x="0"
         y="0" />
    </clipPath>
  </defs>
</svg>
